<svg width="694" height="570" viewBox="0 0 694 570" fill="none" xmlns="http://www.w3.org/2000/svg">
<g filter="url(#filter0_d)">
<circle cx="278" cy="180" r="150" fill="#ECFAF6"/>
</g>
<path fill-rule="evenodd" clip-rule="evenodd" d="M278 329.062C360.325 329.062 427.062 262.325 427.062 180C427.062 97.6751 360.325 30.9375 278 30.9375C195.675 30.9375 128.938 97.6751 128.938 180C128.938 262.325 195.675 329.062 278 329.062ZM278 330C360.843 330 428 262.843 428 180C428 97.1573 360.843 30 278 30C195.157 30 128 97.1573 128 180C128 262.843 195.157 330 278 330Z" fill="#00D9A1"/>
<circle cx="278" cy="180" r="140.625" fill="#00D9A1"/>
<path fill-rule="evenodd" clip-rule="evenodd" d="M278 317.812C354.112 317.812 415.812 256.112 415.812 180C415.812 103.888 354.112 42.1875 278 42.1875C201.888 42.1875 140.188 103.888 140.188 180C140.188 256.112 201.888 317.812 278 317.812ZM278 320.625C355.665 320.625 418.625 257.665 418.625 180C418.625 102.335 355.665 39.375 278 39.375C200.335 39.375 137.375 102.335 137.375 180C137.375 257.665 200.335 320.625 278 320.625Z" fill="white"/>
<path fill-rule="evenodd" clip-rule="evenodd" d="M198.815 100.02C210.193 100.02 219.416 109.243 219.416 120.62V191.125C219.416 223.552 245.704 249.84 278.131 249.84C310.559 249.84 336.847 223.552 336.847 191.125V120.62C336.847 109.243 346.07 100.02 357.447 100.02V191.125C357.447 234.93 321.936 270.441 278.131 270.441C234.326 270.441 198.815 234.93 198.815 191.125V100.02Z" fill="white"/>
<path fill-rule="evenodd" clip-rule="evenodd" d="M234.233 133.455C243.612 133.455 251.216 141.059 251.216 150.438V153.243C258.642 147.475 267.972 144.041 278.104 144.041C302.333 144.041 321.975 163.682 321.976 187.912H321.976C321.976 212.142 302.334 231.784 278.104 231.784C253.874 231.784 234.232 212.142 234.232 187.913H234.231C234.231 187.449 234.239 186.987 234.253 186.526H234.233L234.233 133.455ZM251.214 187.912H251.215C251.215 202.763 263.254 214.801 278.104 214.801C292.955 214.801 304.993 202.763 304.993 187.913H304.993C304.993 173.062 292.954 161.023 278.104 161.023C263.253 161.023 251.215 173.062 251.214 187.912Z" fill="white"/>
<path d="M322.812 127.662C322.812 133.245 318.286 137.771 312.703 137.771C307.12 137.771 302.594 133.245 302.594 127.662C302.594 122.08 307.12 117.554 312.703 117.554C318.286 117.554 322.812 122.08 322.812 127.662Z" fill="white"/>
<g filter="url(#filter1_d)">
<circle cx="535.5" cy="282.5" r="87.5" fill="#ECFAF6"/>
</g>
<path fill-rule="evenodd" clip-rule="evenodd" d="M535.5 369.453C583.523 369.453 622.453 330.523 622.453 282.5C622.453 234.477 583.523 195.547 535.5 195.547C487.477 195.547 448.547 234.477 448.547 282.5C448.547 330.523 487.477 369.453 535.5 369.453ZM535.5 370C583.825 370 623 330.825 623 282.5C623 234.175 583.825 195 535.5 195C487.175 195 448 234.175 448 282.5C448 330.825 487.175 370 535.5 370Z" fill="#00D9A1"/>
<circle cx="535.5" cy="282.5" r="82.0312" fill="#00D9A1"/>
<path fill-rule="evenodd" clip-rule="evenodd" d="M535.5 362.891C579.899 362.891 615.891 326.899 615.891 282.5C615.891 238.101 579.899 202.109 535.5 202.109C491.101 202.109 455.109 238.101 455.109 282.5C455.109 326.899 491.101 362.891 535.5 362.891ZM535.5 364.531C580.805 364.531 617.531 327.805 617.531 282.5C617.531 237.195 580.805 200.469 535.5 200.469C490.195 200.469 453.469 237.195 453.469 282.5C453.469 327.805 490.195 364.531 535.5 364.531Z" fill="white"/>
<path fill-rule="evenodd" clip-rule="evenodd" d="M489.309 235.845C495.946 235.845 501.326 241.225 501.326 247.862V288.989C501.326 307.905 516.661 323.24 535.577 323.24C554.493 323.24 569.827 307.905 569.827 288.989V247.862C569.827 241.225 575.208 235.845 581.844 235.845V288.989C581.844 314.542 561.13 335.257 535.577 335.257C510.024 335.257 489.309 314.542 489.309 288.989V235.845Z" fill="white"/>
<path fill-rule="evenodd" clip-rule="evenodd" d="M509.969 255.349C515.44 255.349 519.876 259.784 519.876 265.255V266.892C524.208 263.527 529.65 261.524 535.56 261.524C549.694 261.524 561.152 272.981 561.152 287.115H561.153C561.153 301.249 549.695 312.707 535.561 312.707C521.427 312.707 509.969 301.249 509.969 287.116H509.968C509.968 286.845 509.972 286.575 509.981 286.307H509.969L509.969 255.349ZM519.875 287.115H519.875C519.875 295.778 526.898 302.801 535.561 302.801C544.223 302.801 551.246 295.778 551.246 287.116H551.246C551.246 278.453 544.223 271.43 535.56 271.43C526.898 271.43 519.875 278.453 519.875 287.115Z" fill="white"/>
<path d="M561.64 251.97C561.64 255.227 559 257.867 555.743 257.867C552.487 257.867 549.847 255.227 549.847 251.97C549.847 248.713 552.487 246.073 555.743 246.073C559 246.073 561.64 248.713 561.64 251.97Z" fill="white"/>
<g filter="url(#filter2_d)">
<circle cx="262.5" cy="448.5" r="67.5" fill="#ECFAF6"/>
</g>
<path fill-rule="evenodd" clip-rule="evenodd" d="M262.5 515.578C299.546 515.578 329.578 485.546 329.578 448.5C329.578 411.454 299.546 381.422 262.5 381.422C225.454 381.422 195.422 411.454 195.422 448.5C195.422 485.546 225.454 515.578 262.5 515.578ZM262.5 516C299.779 516 330 485.779 330 448.5C330 411.221 299.779 381 262.5 381C225.221 381 195 411.221 195 448.5C195 485.779 225.221 516 262.5 516Z" fill="#00D9A1"/>
<circle cx="262.5" cy="448.5" r="63.2812" fill="#00D9A1"/>
<path fill-rule="evenodd" clip-rule="evenodd" d="M262.5 510.516C296.75 510.516 324.516 482.75 324.516 448.5C324.516 414.25 296.75 386.484 262.5 386.484C228.25 386.484 200.484 414.25 200.484 448.5C200.484 482.75 228.25 510.516 262.5 510.516ZM262.5 511.781C297.449 511.781 325.781 483.449 325.781 448.5C325.781 413.551 297.449 385.219 262.5 385.219C227.551 385.219 199.219 413.551 199.219 448.5C199.219 483.449 227.551 511.781 262.5 511.781Z" fill="white"/>
<path fill-rule="evenodd" clip-rule="evenodd" d="M226.867 412.509C231.987 412.509 236.138 416.659 236.138 421.779V453.506C236.138 468.098 247.967 479.928 262.559 479.928C277.152 479.928 288.981 468.098 288.981 453.506V421.779C288.981 416.659 293.132 412.509 298.252 412.509V453.506C298.252 473.218 282.272 489.198 262.559 489.198C242.847 489.198 226.867 473.218 226.867 453.506V412.509Z" fill="white"/>
<path fill-rule="evenodd" clip-rule="evenodd" d="M242.805 427.555C247.026 427.555 250.447 430.976 250.447 435.197V436.459C253.789 433.864 257.987 432.318 262.547 432.318C273.45 432.318 282.289 441.157 282.289 452.06H282.289C282.289 462.964 273.45 471.803 262.547 471.803C251.644 471.803 242.805 462.964 242.804 452.061H242.804C242.804 451.852 242.807 451.644 242.814 451.437H242.805L242.805 427.555ZM250.446 452.06H250.447C250.447 458.743 255.864 464.161 262.547 464.161C269.23 464.161 274.647 458.743 274.647 452.061H274.647C274.647 445.378 269.229 439.96 262.547 439.96C255.864 439.96 250.447 445.378 250.446 452.06Z" fill="white"/>
<path d="M282.665 424.948C282.665 427.461 280.629 429.497 278.116 429.497C275.604 429.497 273.567 427.461 273.567 424.948C273.567 422.436 275.604 420.399 278.116 420.399C280.629 420.399 282.665 422.436 282.665 424.948Z" fill="white"/>
<path fill-rule="evenodd" clip-rule="evenodd" d="M59 308C64.1199 308 68.2704 312.15 68.2704 317.27V348.997C68.2704 363.59 80.0998 375.419 94.6922 375.419C109.285 375.419 121.114 363.59 121.114 348.997V317.27C121.114 312.15 125.265 308 130.384 308V348.997C130.384 368.71 114.404 384.69 94.6922 384.69C74.9799 384.69 59 368.71 59 348.997V308Z" fill="white"/>
<path fill-rule="evenodd" clip-rule="evenodd" d="M74.9388 323.047C79.1595 323.047 82.5811 326.468 82.5811 330.689V331.95C85.9229 329.355 90.1207 327.81 94.6794 327.81C105.583 327.81 114.422 336.649 114.422 347.552H114.422C114.422 358.456 105.583 367.295 94.6796 367.295C83.7763 367.295 74.9374 358.456 74.9372 347.552H74.937C74.937 347.344 74.9402 347.136 74.9467 346.929H74.9388L74.9388 323.047ZM82.5792 347.552H82.5794C82.5794 354.235 87.9969 359.652 94.6796 359.652C101.362 359.652 106.78 354.235 106.78 347.552H106.78C106.78 340.87 101.362 335.452 94.6794 335.452C87.9968 335.452 82.5794 340.87 82.5792 347.552Z" fill="white"/>
<circle cx="110.249" cy="320.44" r="4.54895" fill="white"/>
<path fill-rule="evenodd" clip-rule="evenodd" d="M119 486C121.51 486 123.545 488.035 123.545 490.545V506.101C123.545 513.256 129.345 519.056 136.5 519.056C143.655 519.056 149.455 513.256 149.455 506.101V490.545C149.455 488.035 151.49 486 154 486V506.101C154 515.766 146.165 523.601 136.5 523.601C126.835 523.601 119 515.766 119 506.101V486Z" fill="white"/>
<path fill-rule="evenodd" clip-rule="evenodd" d="M126.816 493.377C128.885 493.377 130.563 495.055 130.563 497.124V497.741C132.201 496.469 134.259 495.712 136.494 495.712C141.84 495.712 146.174 500.046 146.174 505.392H142.427C142.427 502.115 139.77 499.459 136.494 499.459C133.217 499.459 130.561 502.115 130.561 505.392H126.814C126.814 505.29 126.816 505.188 126.819 505.086H126.816L126.816 493.377ZM142.427 505.392C142.427 508.668 139.77 511.325 136.494 511.325C133.217 511.325 130.561 508.668 130.561 505.392L126.814 505.392C126.814 510.738 131.148 515.072 136.494 515.072C141.84 515.072 146.174 510.738 146.174 505.392H142.427Z" fill="white"/>
<circle cx="144.128" cy="492.099" r="2.23036" fill="white"/>
<path fill-rule="evenodd" clip-rule="evenodd" d="M388 360C391.514 360 394.363 362.849 394.363 366.363V388.142C394.363 398.158 402.483 406.278 412.5 406.278C422.517 406.278 430.637 398.158 430.637 388.142V366.363C430.637 362.849 433.486 360 437 360V388.142C437 401.673 426.031 412.642 412.5 412.642C398.969 412.642 388 401.673 388 388.142V360Z" fill="white"/>
<path fill-rule="evenodd" clip-rule="evenodd" d="M398.941 370.328C401.838 370.328 404.187 372.677 404.187 375.574V376.438C406.481 374.657 409.362 373.597 412.491 373.597C419.976 373.597 426.043 379.664 426.043 387.149H420.797C420.797 382.561 417.078 378.843 412.491 378.843C407.904 378.843 404.185 382.561 404.185 387.149H398.939C398.939 387.006 398.942 386.863 398.946 386.721H398.941L398.941 370.328ZM420.797 387.149C420.797 391.736 417.079 395.455 412.491 395.455C407.904 395.455 404.185 391.736 404.185 387.149H398.94C398.94 394.633 405.007 400.701 412.491 400.701C419.976 400.701 426.043 394.633 426.043 387.149H420.797Z" fill="white"/>
<circle cx="423.179" cy="368.539" r="3.12251" fill="white"/>
<path fill-rule="evenodd" clip-rule="evenodd" d="M461 108C464.514 108 467.363 110.849 467.363 114.363V136.142C467.363 146.158 475.483 154.278 485.5 154.278C495.517 154.278 503.637 146.158 503.637 136.142V114.363C503.637 110.849 506.486 108 510 108V136.142C510 149.673 499.031 160.642 485.5 160.642C471.969 160.642 461 149.673 461 136.142V108Z" fill="white"/>
<path fill-rule="evenodd" clip-rule="evenodd" d="M471.941 118.328C474.838 118.328 477.187 120.677 477.187 123.574V124.438C479.481 122.657 482.362 121.597 485.491 121.597C492.976 121.597 499.043 127.664 499.043 135.149H493.797C493.797 130.561 490.078 126.843 485.491 126.843C480.904 126.843 477.185 130.561 477.185 135.149H471.939C471.939 135.006 471.942 134.863 471.946 134.721H471.941L471.941 118.328ZM493.797 135.149C493.797 139.736 490.079 143.455 485.491 143.455C480.904 143.455 477.185 139.736 477.185 135.149H471.94C471.94 142.633 478.007 148.701 485.491 148.701C492.976 148.701 499.043 142.633 499.043 135.149H493.797Z" fill="white"/>
<circle cx="496.179" cy="116.539" r="3.12251" fill="white"/>
<circle cx="348" cy="348" r="4" fill="#008968"/>
<circle cx="309" cy="566" r="4" fill="#008968"/>
<circle cx="690" cy="275" r="4" fill="#008968"/>
<circle cx="29" cy="424" r="4" fill="#008968"/>
<circle cx="95" cy="237" r="4" fill="#008968"/>
<circle cx="539" cy="494" r="4" fill="#008968"/>
<circle cx="546" cy="161" r="4" fill="#008968"/>
<circle cx="398" cy="462" r="4" fill="#FFC700"/>
<circle cx="633" cy="378" r="4" fill="#FFC700"/>
<circle cx="4" cy="195" r="4" fill="#FFC700"/>
<circle cx="664" cy="99" r="4" fill="#FFC700"/>
<circle cx="173" cy="394" r="4" fill="#FFC700"/>
<circle cx="513" cy="83" r="4" fill="#FFC700"/>
<circle cx="64" cy="542" r="4" fill="#FFC700"/>
<defs>
<filter id="filter0_d" x="92" y="0" width="372" height="372" filterUnits="userSpaceOnUse" color-interpolation-filters="sRGB">
<feFlood flood-opacity="0" result="BackgroundImageFix"/>
<feColorMatrix in="SourceAlpha" type="matrix" values="0 0 0 0 0 0 0 0 0 0 0 0 0 0 0 0 0 0 127 0"/>
<feOffset dy="6"/>
<feGaussianBlur stdDeviation="18"/>
<feColorMatrix type="matrix" values="0 0 0 0 0 0 0 0 0 0.85098 0 0 0 0 0.631373 0 0 0 0.25 0"/>
<feBlend mode="normal" in2="BackgroundImageFix" result="effect1_dropShadow"/>
<feBlend mode="normal" in="SourceGraphic" in2="effect1_dropShadow" result="shape"/>
</filter>
<filter id="filter1_d" x="412" y="165" width="247" height="247" filterUnits="userSpaceOnUse" color-interpolation-filters="sRGB">
<feFlood flood-opacity="0" result="BackgroundImageFix"/>
<feColorMatrix in="SourceAlpha" type="matrix" values="0 0 0 0 0 0 0 0 0 0 0 0 0 0 0 0 0 0 127 0"/>
<feOffset dy="6"/>
<feGaussianBlur stdDeviation="18"/>
<feColorMatrix type="matrix" values="0 0 0 0 0 0 0 0 0 0.85098 0 0 0 0 0.631373 0 0 0 0.25 0"/>
<feBlend mode="normal" in2="BackgroundImageFix" result="effect1_dropShadow"/>
<feBlend mode="normal" in="SourceGraphic" in2="effect1_dropShadow" result="shape"/>
</filter>
<filter id="filter2_d" x="159" y="351" width="207" height="207" filterUnits="userSpaceOnUse" color-interpolation-filters="sRGB">
<feFlood flood-opacity="0" result="BackgroundImageFix"/>
<feColorMatrix in="SourceAlpha" type="matrix" values="0 0 0 0 0 0 0 0 0 0 0 0 0 0 0 0 0 0 127 0"/>
<feOffset dy="6"/>
<feGaussianBlur stdDeviation="18"/>
<feColorMatrix type="matrix" values="0 0 0 0 0 0 0 0 0 0.85098 0 0 0 0 0.631373 0 0 0 0.25 0"/>
<feBlend mode="normal" in2="BackgroundImageFix" result="effect1_dropShadow"/>
<feBlend mode="normal" in="SourceGraphic" in2="effect1_dropShadow" result="shape"/>
</filter>
</defs>
</svg>
